<?xml version="1.0" encoding="UTF-8"?>
<svg xmlns="http://www.w3.org/2000/svg" width="1264" height="268" viewBox="0 0 1264 268"
     role="img" aria-labelledby="title desc">
  <title id="title">Exercised across seven models</title>
  <desc id="desc">DeepSeek v4-flash, MiMo v2.5, GLM 5.1, Qwen 3.7-plus, MiniMax M2.7, Kimi K2.7-code, GPT 5.6</desc>
  <!-- Brand marks adapted from @lobehub/icons-static-svg and Simple Icons (MIT).
       Original brand colors kept where they exist. Mono marks (Z.ai, OpenAI) use white
       on dark — the official dark-surface treatment. -->
  <defs>
    <radialGradient id="glow" cx="50%" cy="-8%" r="88%">
      <stop offset="0%" stop-color="#7e2f43" stop-opacity="0.58"/>
      <stop offset="42%" stop-color="#3a1520" stop-opacity="0.34"/>
      <stop offset="100%" stop-color="#0b0709" stop-opacity="0"/>
    </radialGradient>
    <linearGradient id="fade" x1="0" y1="0" x2="0" y2="1">
      <stop offset="0%" stop-color="#120b0e"/>
      <stop offset="100%" stop-color="#0b0709"/>
    </linearGradient>
<linearGradient id="m-qwen-lobe-icons-qwen-_R_0_" x1="0%" x2="100%" y1="0%" y2="0%"><stop offset="0%" stop-color="#6336E7" stop-opacity=".84"></stop><stop offset="100%" stop-color="#6F69F7" stop-opacity=".84"></stop></linearGradient>
<linearGradient id="m-minimax-lobe-icons-minimax-_R_0_" x1="0%" x2="100.182%" y1="50.057%" y2="50.057%"><stop offset="0%" stop-color="#E2167E"></stop><stop offset="100%" stop-color="#FE603C"></stop></linearGradient>
    <symbol id="logo-deepseek" viewBox="0 0 24 24">
      <path d="M23.748 4.482c-.254-.124-.364.113-.512.234-.051.039-.094.09-.137.136-.372.397-.806.657-1.373.626-.829-.046-1.537.214-2.163.848-.133-.782-.575-1.248-1.247-1.548-.352-.156-.708-.311-.955-.65-.172-.241-.219-.51-.305-.774-.055-.16-.11-.323-.293-.35-.2-.031-.278.136-.356.276-.313.572-.434 1.202-.422 1.84.027 1.436.633 2.58 1.838 3.393.137.093.172.187.129.323-.082.28-.18.552-.266.833-.055.179-.137.217-.329.14a5.526 5.526 0 01-1.736-1.18c-.857-.828-1.631-1.742-2.597-2.458a11.365 11.365 0 00-.689-.471c-.985-.957.13-1.743.388-1.836.27-.098.093-.432-.779-.428-.872.004-1.67.295-2.687.684a3.055 3.055 0 01-.465.137 9.597 9.597 0 00-2.883-.102c-1.885.21-3.39 1.102-4.497 2.623C.082 8.606-.231 10.684.152 12.85c.403 2.284 1.569 4.175 3.36 5.653 1.858 1.533 3.997 2.284 6.438 2.14 1.482-.085 3.133-.284 4.994-1.86.47.234.962.327 1.78.397.63.059 1.236-.03 1.705-.128.735-.156.684-.837.419-.961-2.155-1.004-1.682-.595-2.113-.926 1.096-1.296 2.746-2.642 3.392-7.003.05-.347.007-.565 0-.845-.004-.17.035-.237.23-.256a4.173 4.173 0 001.545-.475c1.396-.763 1.96-2.015 2.093-3.517.02-.23-.004-.467-.247-.588zM11.581 18c-2.089-1.642-3.102-2.183-3.52-2.16-.392.024-.321.471-.235.763.09.288.207.486.371.739.114.167.192.416-.113.603-.673.416-1.842-.14-1.897-.167-1.361-.802-2.5-1.86-3.301-3.307-.774-1.393-1.224-2.887-1.298-4.482-.02-.386.093-.522.477-.592a4.696 4.696 0 011.529-.039c2.132.312 3.946 1.265 5.468 2.774.868.86 1.525 1.887 2.202 2.891.72 1.066 1.494 2.082 2.48 2.914.348.292.625.514.891.677-.802.09-2.14.11-3.054-.614zm1-6.44a.306.306 0 01.415-.287.302.302 0 01.2.288.306.306 0 01-.31.307.303.303 0 01-.304-.308zm3.11 1.596c-.2.081-.399.151-.59.16a1.245 1.245 0 01-.798-.254c-.274-.23-.47-.358-.552-.758a1.73 1.73 0 01.016-.588c.07-.327-.008-.537-.239-.727-.187-.156-.426-.199-.688-.199a.559.559 0 01-.254-.078c-.11-.054-.2-.19-.114-.358.028-.054.16-.186.192-.21.356-.202.767-.136 1.146.016.352.144.618.408 1.001.782.391.451.462.576.685.914.176.265.336.537.445.848.067.195-.019.354-.25.452z" fill="#4D6BFE"></path>
    </symbol>
    <symbol id="logo-mimo" viewBox="0 0 24 24">
      <path fill="#FF6900" d="M12 0C8.016 0 4.756.255 2.493 2.516.23 4.776 0 8.033 0 12.012c0 3.98.23 7.235 2.494 9.497C4.757 23.77 8.017 24 12 24c3.983 0 7.243-.23 9.506-2.491C23.77 19.247 24 15.99 24 12.012c0-3.984-.233-7.243-2.502-9.504C19.234.252 15.978 0 12 0zM4.906 7.405h5.624c1.47 0 3.007.068 3.764.827.746.746.827 2.233.83 3.676v4.54a.15.15 0 0 1-.152.147h-1.947a.15.15 0 0 1-.152-.148V11.83c-.002-.806-.048-1.634-.464-2.051-.358-.36-1.026-.441-1.72-.458H7.158a.15.15 0 0 0-.151.147v6.98a.15.15 0 0 1-.152.148H4.906a.15.15 0 0 1-.15-.148V7.554a.15.15 0 0 1 .15-.149zm12.131 0h1.949a.15.15 0 0 1 .15.15v8.892a.15.15 0 0 1-.15.148h-1.949a.15.15 0 0 1-.151-.148V7.554a.15.15 0 0 1 .151-.149zM8.92 10.948h2.046c.083 0 .15.066.15.147v5.352a.15.15 0 0 1-.15.148H8.92a.15.15 0 0 1-.152-.148v-5.352a.15.15 0 0 1 .152-.147Z"/>
    </symbol>
    <symbol id="logo-glm" viewBox="0 0 24 24">
      <path fill="#FFFFFF" d="M12.105 2L9.927 4.953H.653L2.83 2h9.276zM23.254 19.048L21.078 22h-9.242l2.174-2.952h9.244zM24 2L9.264 22H0L14.736 2H24z"></path>
    </symbol>
    <symbol id="logo-qwen" viewBox="0 0 24 24">
      <path d="M12.604 1.34c.393.69.784 1.382 1.174 2.075a.18.18 0 00.157.091h5.552c.174 0 .322.11.446.327l1.454 2.57c.19.337.24.478.024.837-.26.43-.513.864-.76 1.3l-.367.658c-.106.196-.223.28-.04.512l2.652 4.637c.172.301.111.494-.043.77-.437.785-.882 1.564-1.335 2.34-.159.272-.352.375-.68.37-.777-.016-1.552-.01-2.327.016a.099.099 0 00-.081.05 575.097 575.097 0 01-2.705 4.74c-.169.293-.38.363-.725.364-.997.003-2.002.004-3.017.002a.537.537 0 01-.465-.271l-1.335-2.323a.09.09 0 00-.083-.049H4.982c-.285.03-.553-.001-.805-.092l-1.603-2.77a.543.543 0 01-.002-.54l1.207-2.12a.198.198 0 000-.197 550.951 550.951 0 01-1.875-3.272l-.79-1.395c-.16-.31-.173-.496.095-.965.465-.813.927-1.625 1.387-2.436.132-.234.304-.334.584-.335a338.3 338.3 0 012.589-.001.124.124 0 00.107-.063l2.806-4.895a.488.488 0 01.422-.246c.524-.001 1.053 0 1.583-.006L11.704 1c.341-.003.724.032.9.34zm-3.432.403a.06.06 0 00-.052.03L6.254 6.788a.157.157 0 01-.135.078H3.253c-.056 0-.07.025-.041.074l5.81 10.156c.025.042.013.062-.034.063l-2.795.015a.218.218 0 00-.2.116l-1.32 2.31c-.044.078-.021.118.068.118l5.716.008c.046 0 .08.02.104.061l1.403 2.454c.046.081.092.082.139 0l5.006-8.76.783-1.382a.055.055 0 01.096 0l1.424 2.53a.122.122 0 00.107.062l2.763-.02a.04.04 0 00.035-.02.041.041 0 000-.04l-2.9-5.086a.108.108 0 010-.113l.293-.507 1.12-1.977c.024-.041.012-.062-.035-.062H9.2c-.059 0-.073-.026-.043-.077l1.434-2.505a.107.107 0 000-.114L9.225 1.774a.06.06 0 00-.053-.031zm6.29 8.02c.046 0 .058.02.034.06l-.832 1.465-2.613 4.585a.056.056 0 01-.05.029.058.058 0 01-.05-.029L8.498 9.841c-.02-.034-.01-.052.028-.054l.216-.012 6.722-.012z" fill="url(#m-qwen-lobe-icons-qwen-_R_0_)" fill-rule="nonzero"></path>
    </symbol>
    <symbol id="logo-minimax" viewBox="0 0 24 24">
      <path d="M16.278 2c1.156 0 2.093.927 2.093 2.07v12.501a.74.74 0 00.744.709.74.74 0 00.743-.709V9.099a2.06 2.06 0 012.071-2.049A2.06 2.06 0 0124 9.1v6.561a.649.649 0 01-.652.645.649.649 0 01-.653-.645V9.1a.762.762 0 00-.766-.758.762.762 0 00-.766.758v7.472a2.037 2.037 0 01-2.048 2.026 2.037 2.037 0 01-2.048-2.026v-12.5a.785.785 0 00-.788-.753.785.785 0 00-.789.752l-.001 15.904A2.037 2.037 0 0113.441 22a2.037 2.037 0 01-2.048-2.026V18.04c0-.356.292-.645.652-.645.36 0 .652.289.652.645v1.934c0 .263.142.506.372.638.23.131.514.131.744 0a.734.734 0 00.372-.638V4.07c0-1.143.937-2.07 2.093-2.07zm-5.674 0c1.156 0 2.093.927 2.093 2.07v11.523a.648.648 0 01-.652.645.648.648 0 01-.652-.645V4.07a.785.785 0 00-.789-.78.785.785 0 00-.789.78v14.013a2.06 2.06 0 01-2.07 2.048 2.06 2.06 0 01-2.071-2.048V9.1a.762.762 0 00-.766-.758.762.762 0 00-.766.758v3.8a2.06 2.06 0 01-2.071 2.049A2.06 2.06 0 010 12.9v-1.378c0-.357.292-.646.652-.646.36 0 .653.29.653.646V12.9c0 .418.343.757.766.757s.766-.339.766-.757V9.099a2.06 2.06 0 012.07-2.048 2.06 2.06 0 012.071 2.048v8.984c0 .419.343.758.767.758.423 0 .766-.339.766-.758V4.07c0-1.143.937-2.07 2.093-2.07z" fill="url(#m-minimax-lobe-icons-minimax-_R_0_)" fill-rule="nonzero"></path>
    </symbol>
    <symbol id="logo-kimi" viewBox="0 0 24 24">
      <path d="M21.846 0a1.923 1.923 0 110 3.846H20.15a.226.226 0 01-.227-.226V1.923C19.923.861 20.784 0 21.846 0z" fill="#1783FF"></path><path d="M11.065 11.199l7.257-7.2c.137-.136.06-.41-.116-.41H14.3a.164.164 0 00-.117.051l-7.82 7.756c-.122.12-.302.013-.302-.179V3.82c0-.127-.083-.23-.185-.23H3.186c-.103 0-.186.103-.186.23V19.77c0 .128.083.23.186.23h2.69c.103 0 .186-.102.186-.23v-3.25c0-.069.025-.135.069-.178l2.424-2.406a.158.158 0 01.205-.023l6.484 4.772a7.677 7.677 0 003.453 1.283c.108.012.2-.095.2-.23v-3.06c0-.117-.07-.212-.164-.227a5.028 5.028 0 01-2.027-.807l-5.613-4.064c-.117-.078-.132-.279-.028-.381z" fill="#fff"></path>
    </symbol>
    <symbol id="logo-gpt" viewBox="0 0 24 24">
      <path fill="#FFFFFF" d="M9.205 8.658v-2.26c0-.19.072-.333.238-.428l4.543-2.616c.619-.357 1.356-.523 2.117-.523 2.854 0 4.662 2.212 4.662 4.566 0 .167 0 .357-.024.547l-4.71-2.759a.797.797 0 00-.856 0l-5.97 3.473zm10.609 8.8V12.06c0-.333-.143-.57-.429-.737l-5.97-3.473 1.95-1.118a.433.433 0 01.476 0l4.543 2.617c1.309.76 2.189 2.378 2.189 3.948 0 1.808-1.07 3.473-2.76 4.163zM7.802 12.703l-1.95-1.142c-.167-.095-.239-.238-.239-.428V5.899c0-2.545 1.95-4.472 4.591-4.472 1 0 1.927.333 2.712.928L8.23 5.067c-.285.166-.428.404-.428.737v6.898zM12 15.128l-2.795-1.57v-3.33L12 8.658l2.795 1.57v3.33L12 15.128zm1.796 7.23c-1 0-1.927-.332-2.712-.927l4.686-2.712c.285-.166.428-.404.428-.737v-6.898l1.974 1.142c.167.095.238.238.238.428v5.233c0 2.545-1.974 4.472-4.614 4.472zm-5.637-5.303l-4.544-2.617c-1.308-.761-2.188-2.378-2.188-3.948A4.482 4.482 0 014.21 6.327v5.423c0 .333.143.571.428.738l5.947 3.449-1.95 1.118a.432.432 0 01-.476 0zm-.262 3.9c-2.688 0-4.662-2.021-4.662-4.519 0-.19.024-.38.047-.57l4.686 2.71c.286.167.571.167.856 0l5.97-3.448v2.26c0 .19-.07.333-.237.428l-4.543 2.616c-.619.357-1.356.523-2.117.523zm5.899 2.83a5.947 5.947 0 005.827-4.756C22.287 18.339 24 15.84 24 13.296c0-1.665-.713-3.282-1.998-4.448.119-.5.19-.999.19-1.498 0-3.401-2.759-5.947-5.946-5.947-.642 0-1.26.095-1.88.31A5.962 5.962 0 0010.205 0a5.947 5.947 0 00-5.827 4.757C1.713 5.447 0 7.945 0 10.49c0 1.666.713 3.283 1.998 4.448-.119.5-.19 1-.19 1.499 0 3.401 2.759 5.946 5.946 5.946.642 0 1.26-.095 1.88-.309a5.96 5.96 0 004.162 1.713z"></path>
    </symbol>
  </defs>

  <rect width="1264" height="268" rx="26" fill="url(#fade)"/>
  <rect width="1264" height="268" rx="26" fill="url(#glow)"/>
  <rect x="1" y="1" width="1262" height="266" rx="25" fill="none"
        stroke="#c76b82" stroke-opacity="0.55" stroke-width="2"/>

  <text x="56" y="58"
        font-family="JetBrains Mono, SF Mono, DejaVu Sans Mono, ui-monospace, monospace"
        font-size="32" font-weight="700" fill="#f4eaee">Exercised across seven models</text>
  <text x="56" y="90"
        font-family="JetBrains Mono, SF Mono, DejaVu Sans Mono, ui-monospace, monospace"
        font-size="15.5" fill="#b597a1">near-ideal output · skill file stays small</text>

  <g>
    <rect x="56.0" y="118" width="152.6" height="118" rx="16"
          fill="#1a0e12" fill-opacity="0.55" stroke="#c76b82" stroke-opacity="0.28" stroke-width="1"/>
    <circle cx="132.3" cy="155.0" r="23.0"
            fill="#e2637f" fill-opacity="0.08"/>
    <use href="#logo-deepseek" x="117.3" y="140.0" width="30" height="30"/>
    <text x="132.3" y="200" text-anchor="middle"
          font-family="JetBrains Mono, SF Mono, DejaVu Sans Mono, ui-monospace, monospace"
          font-size="14.5" font-weight="600" fill="#f4eaee">DeepSeek</text>
    <text x="132.3" y="220" text-anchor="middle"
          font-family="JetBrains Mono, SF Mono, DejaVu Sans Mono, ui-monospace, monospace"
          font-size="12" fill="#e2637f" fill-opacity="0.78">v4-flash</text>
  </g>
  <g>
    <rect x="222.6" y="118" width="152.6" height="118" rx="16"
          fill="#1a0e12" fill-opacity="0.55" stroke="#c76b82" stroke-opacity="0.28" stroke-width="1"/>
    <circle cx="298.9" cy="155.0" r="23.0"
            fill="#e2637f" fill-opacity="0.08"/>
    <use href="#logo-mimo" x="283.9" y="140.0" width="30" height="30"/>
    <text x="298.9" y="200" text-anchor="middle"
          font-family="JetBrains Mono, SF Mono, DejaVu Sans Mono, ui-monospace, monospace"
          font-size="14.5" font-weight="600" fill="#f4eaee">MiMo</text>
    <text x="298.9" y="220" text-anchor="middle"
          font-family="JetBrains Mono, SF Mono, DejaVu Sans Mono, ui-monospace, monospace"
          font-size="12" fill="#e2637f" fill-opacity="0.78">v2.5</text>
  </g>
  <g>
    <rect x="389.1" y="118" width="152.6" height="118" rx="16"
          fill="#1a0e12" fill-opacity="0.55" stroke="#c76b82" stroke-opacity="0.28" stroke-width="1"/>
    <circle cx="465.4" cy="155.0" r="23.0"
            fill="#e2637f" fill-opacity="0.08"/>
    <use href="#logo-glm" x="450.4" y="140.0" width="30" height="30"/>
    <text x="465.4" y="200" text-anchor="middle"
          font-family="JetBrains Mono, SF Mono, DejaVu Sans Mono, ui-monospace, monospace"
          font-size="14.5" font-weight="600" fill="#f4eaee">GLM</text>
    <text x="465.4" y="220" text-anchor="middle"
          font-family="JetBrains Mono, SF Mono, DejaVu Sans Mono, ui-monospace, monospace"
          font-size="12" fill="#e2637f" fill-opacity="0.78">5.1</text>
  </g>
  <g>
    <rect x="555.7" y="118" width="152.6" height="118" rx="16"
          fill="#1a0e12" fill-opacity="0.55" stroke="#c76b82" stroke-opacity="0.28" stroke-width="1"/>
    <circle cx="632.0" cy="155.0" r="23.0"
            fill="#e2637f" fill-opacity="0.08"/>
    <use href="#logo-qwen" x="617.0" y="140.0" width="30" height="30"/>
    <text x="632.0" y="200" text-anchor="middle"
          font-family="JetBrains Mono, SF Mono, DejaVu Sans Mono, ui-monospace, monospace"
          font-size="14.5" font-weight="600" fill="#f4eaee">Qwen</text>
    <text x="632.0" y="220" text-anchor="middle"
          font-family="JetBrains Mono, SF Mono, DejaVu Sans Mono, ui-monospace, monospace"
          font-size="12" fill="#e2637f" fill-opacity="0.78">3.7-plus</text>
  </g>
  <g>
    <rect x="722.3" y="118" width="152.6" height="118" rx="16"
          fill="#1a0e12" fill-opacity="0.55" stroke="#c76b82" stroke-opacity="0.28" stroke-width="1"/>
    <circle cx="798.6" cy="155.0" r="23.0"
            fill="#e2637f" fill-opacity="0.08"/>
    <use href="#logo-minimax" x="783.6" y="140.0" width="30" height="30"/>
    <text x="798.6" y="200" text-anchor="middle"
          font-family="JetBrains Mono, SF Mono, DejaVu Sans Mono, ui-monospace, monospace"
          font-size="14.5" font-weight="600" fill="#f4eaee">MiniMax</text>
    <text x="798.6" y="220" text-anchor="middle"
          font-family="JetBrains Mono, SF Mono, DejaVu Sans Mono, ui-monospace, monospace"
          font-size="12" fill="#e2637f" fill-opacity="0.78">M2.7</text>
  </g>
  <g>
    <rect x="888.9" y="118" width="152.6" height="118" rx="16"
          fill="#1a0e12" fill-opacity="0.55" stroke="#c76b82" stroke-opacity="0.28" stroke-width="1"/>
    <circle cx="965.1" cy="155.0" r="23.0"
            fill="#e2637f" fill-opacity="0.08"/>
    <use href="#logo-kimi" x="950.1" y="140.0" width="30" height="30"/>
    <text x="965.1" y="200" text-anchor="middle"
          font-family="JetBrains Mono, SF Mono, DejaVu Sans Mono, ui-monospace, monospace"
          font-size="14.5" font-weight="600" fill="#f4eaee">Kimi</text>
    <text x="965.1" y="220" text-anchor="middle"
          font-family="JetBrains Mono, SF Mono, DejaVu Sans Mono, ui-monospace, monospace"
          font-size="12" fill="#e2637f" fill-opacity="0.78">K2.7-code</text>
  </g>
  <g>
    <rect x="1055.4" y="118" width="152.6" height="118" rx="16"
          fill="#1a0e12" fill-opacity="0.55" stroke="#c76b82" stroke-opacity="0.28" stroke-width="1"/>
    <circle cx="1131.7" cy="155.0" r="23.0"
            fill="#e2637f" fill-opacity="0.08"/>
    <use href="#logo-gpt" x="1116.7" y="140.0" width="30" height="30"/>
    <text x="1131.7" y="200" text-anchor="middle"
          font-family="JetBrains Mono, SF Mono, DejaVu Sans Mono, ui-monospace, monospace"
          font-size="14.5" font-weight="600" fill="#f4eaee">GPT</text>
    <text x="1131.7" y="220" text-anchor="middle"
          font-family="JetBrains Mono, SF Mono, DejaVu Sans Mono, ui-monospace, monospace"
          font-size="12" fill="#e2637f" fill-opacity="0.78">5.6</text>
  </g>
</svg>
